<svg xmlns="http://www.w3.org/2000/svg" width="49.998" height="50.003" viewBox="0 0 49.998 50.003">
  <path id="Path_377" data-name="Path 377" d="M142.774,2.48a7.67,7.67,0,0,0-10.847,0L114.245,20.162,101.518,32.89a1.7,1.7,0,0,0-.437.75l-4,14.437a1.7,1.7,0,0,0,2.1,2.1l14.437-4a1.7,1.7,0,0,0,.75-.437L124.733,35.37l20.042-20.042a7.679,7.679,0,0,0,0-10.847ZM105.231,34,130.119,9.109l8.026,8.026L113.257,42.024Zm-1.6,3.217,6.412,6.413-8.87,2.458Zm38.736-24.3-1.808,1.808L132.529,6.7l1.808-1.808a4.261,4.261,0,0,1,6.026,0l2,2A4.267,4.267,0,0,1,142.364,12.918Zm0,0" transform="translate(-97.019 -0.234)" fill="#fff"/>
</svg>
