<svg xmlns="http://www.w3.org/2000/svg" width="39" height="35.797" viewBox="0 0 39 35.797">
  <g id="eraser_icon" transform="translate(0 -0.479)">
    <path id="Path_373" data-name="Path 373" d="M27.568,376.039H1.074a1.47,1.47,0,0,1,0-2.832H27.568a1.47,1.47,0,0,1,0,2.832Zm0,0" transform="translate(0 -339.762)" fill="#fff"/>
    <path id="Path_374" data-name="Path 374" d="M19.17,36.275a1.416,1.416,0,0,1-1-2.417l17.3-17.3a2.336,2.336,0,0,0,.7-1.66,2.36,2.36,0,0,0-.7-1.679L26.208,3.952a2.348,2.348,0,0,0-3.328-.009L3.528,23.294a2.345,2.345,0,0,0-.011,3.328l7.238,7.238a1.416,1.416,0,0,1-2,2L1.526,28.635a5.178,5.178,0,0,1,.013-7.355L20.868,1.954a5.306,5.306,0,0,1,7.353.011l9.251,9.253a5.17,5.17,0,0,1,0,7.34l-17.3,17.3A1.4,1.4,0,0,1,19.17,36.275Zm0,0" transform="translate(0 0)" fill="#fff"/>
    <path id="Path_375" data-name="Path 375" d="M168.175,109a1.4,1.4,0,0,1-1-.415l-14.6-14.6a1.415,1.415,0,1,1,2-2l14.6,14.6a1.416,1.416,0,0,1-1,2.417Zm0,0" transform="translate(-138.699 -83.032)" fill="#fff"/>
  </g>
</svg>
